<svg width="281" height="49" viewBox="0 0 281 49" fill="none" xmlns="http://www.w3.org/2000/svg">
<path d="M14.3678 42.9C16.2598 42.9 17.9098 42.614 19.3178 42.042C20.7698 41.47 22.0018 40.678 23.0138 39.666C24.0258 38.654 24.8618 37.444 25.5218 36.036C26.2258 34.584 26.7978 33 27.2378 31.284L27.4358 30.492H32.9798L32.7818 31.284C32.1218 33.924 31.2858 36.3 30.2738 38.412C29.3058 40.48 28.0738 42.24 26.5778 43.692C25.1258 45.1 23.3438 46.178 21.2318 46.926C19.1198 47.674 16.6118 48.048 13.7078 48.048C11.5518 48.048 9.65981 47.74 8.03181 47.124C6.40381 46.508 5.01781 45.65 3.87381 44.55C2.77381 43.406 1.93781 42.064 1.36581 40.524C0.793813 38.984 0.507812 37.268 0.507812 35.376C0.507812 34.452 0.551812 33.484 0.639812 32.472C0.771812 31.416 0.947812 30.316 1.16781 29.172L3.34581 18.876C4.66581 12.628 6.95381 7.92 10.2098 4.752C13.5098 1.584 17.8438 0 23.2118 0C25.3238 0 27.1938 0.308 28.8218 0.924C30.4938 1.54 31.8798 2.398 32.9798 3.498C34.1238 4.554 34.9818 5.852 35.5538 7.392C36.1698 8.888 36.4778 10.516 36.4778 12.276C36.4778 13.684 36.2798 15.18 35.8838 16.764L35.6858 17.556H30.1418L30.3398 16.764C30.5598 15.928 30.6918 15.202 30.7358 14.586C30.8238 13.926 30.8678 13.288 30.8678 12.672C30.8678 10.34 30.1858 8.492 28.8218 7.128C27.5018 5.72 25.3458 5.016 22.3538 5.016C20.5938 5.016 18.9878 5.368 17.5358 6.072C16.0838 6.776 14.7858 7.766 13.6418 9.042C12.4978 10.274 11.5078 11.77 10.6718 13.53C9.87981 15.246 9.26381 17.16 8.82381 19.272L6.77781 28.776C6.55781 29.788 6.38181 30.734 6.24981 31.614C6.16181 32.494 6.11781 33.33 6.11781 34.122C6.11781 37.07 6.77781 39.27 8.09781 40.722C9.41781 42.174 11.5078 42.9 14.3678 42.9Z" fill="black"/>
<path d="M43.4939 18.876C44.7699 12.716 47.0139 8.03 50.2259 4.818C53.4819 1.606 57.8379 0 63.2939 0C67.5619 0 70.8179 1.232 73.0619 3.696C75.3499 6.116 76.4939 9.482 76.4939 13.794C76.4939 14.674 76.4279 15.62 76.2959 16.632C76.2079 17.6 76.0539 18.59 75.8339 19.602L73.7879 29.172C72.5119 35.332 70.2459 40.018 66.9899 43.23C63.7779 46.442 59.4439 48.048 53.9879 48.048C49.7199 48.048 46.4419 46.838 44.1539 44.418C41.9099 41.954 40.7879 38.566 40.7879 34.254C40.7879 33.374 40.8319 32.45 40.9199 31.482C41.0519 30.47 41.2279 29.458 41.4479 28.446L43.4939 18.876ZM54.7799 43.032C56.5839 43.032 58.2119 42.702 59.6639 42.042C61.1599 41.338 62.4579 40.37 63.5579 39.138C64.7019 37.862 65.6479 36.366 66.3959 34.65C67.1879 32.89 67.8259 30.932 68.3099 28.776L70.4219 18.876C70.7739 17.116 70.9499 15.576 70.9499 14.256C70.9499 11.396 70.2459 9.152 68.8379 7.524C67.4299 5.852 65.3179 5.016 62.5019 5.016C58.8499 5.016 55.9019 6.314 53.6579 8.91C51.4579 11.506 49.8959 14.96 48.9719 19.272L46.8599 29.172C46.5079 30.932 46.3319 32.472 46.3319 33.792C46.3319 36.652 47.0359 38.918 48.4439 40.59C49.8519 42.218 51.9639 43.032 54.7799 43.032Z" fill="black"/>
<path d="M102.848 44.748H103.64L112.946 0.924H118.49L108.656 47.124H97.766L95.126 3.3H94.334L85.028 47.124H79.484L89.318 0.924H100.208L102.848 44.748Z" fill="black"/>
<path d="M126.034 0.924H159.232V6.072H145.834L137.122 47.124H131.578L140.29 6.072H126.034V0.924Z" fill="black"/>
<path d="M187.302 35.64H168.756L163.146 47.124H156.876L179.778 0.924H190.338L193.638 47.124H188.028L187.302 35.64ZM171.264 30.492H186.972L185.256 3.366H184.464L171.264 30.492Z" fill="black"/>
<path d="M216.428 42.9C218.32 42.9 219.97 42.614 221.378 42.042C222.83 41.47 224.062 40.678 225.074 39.666C226.086 38.654 226.922 37.444 227.582 36.036C228.286 34.584 228.858 33 229.298 31.284L229.496 30.492H235.04L234.842 31.284C234.182 33.924 233.346 36.3 232.334 38.412C231.366 40.48 230.134 42.24 228.638 43.692C227.186 45.1 225.404 46.178 223.292 46.926C221.18 47.674 218.672 48.048 215.768 48.048C213.612 48.048 211.72 47.74 210.092 47.124C208.464 46.508 207.078 45.65 205.934 44.55C204.834 43.406 203.998 42.064 203.426 40.524C202.854 38.984 202.568 37.268 202.568 35.376C202.568 34.452 202.612 33.484 202.7 32.472C202.832 31.416 203.008 30.316 203.228 29.172L205.406 18.876C206.726 12.628 209.014 7.92 212.27 4.752C215.57 1.584 219.904 0 225.272 0C227.384 0 229.254 0.308 230.882 0.924C232.554 1.54 233.94 2.398 235.04 3.498C236.184 4.554 237.042 5.852 237.614 7.392C238.23 8.888 238.538 10.516 238.538 12.276C238.538 13.684 238.34 15.18 237.944 16.764L237.746 17.556H232.202L232.4 16.764C232.62 15.928 232.752 15.202 232.796 14.586C232.884 13.926 232.928 13.288 232.928 12.672C232.928 10.34 232.246 8.492 230.882 7.128C229.562 5.72 227.406 5.016 224.414 5.016C222.654 5.016 221.048 5.368 219.596 6.072C218.144 6.776 216.846 7.766 215.702 9.042C214.558 10.274 213.568 11.77 212.732 13.53C211.94 15.246 211.324 17.16 210.884 19.272L208.838 28.776C208.618 29.788 208.442 30.734 208.31 31.614C208.222 32.494 208.178 33.33 208.178 34.122C208.178 37.07 208.838 39.27 210.158 40.722C211.478 42.174 213.568 42.9 216.428 42.9Z" fill="black"/>
<path d="M247.27 0.924H280.468V6.072H267.07L258.358 47.124H252.814L261.526 6.072H247.27V0.924Z" fill="black"/>
</svg>
